<?xml version="1.0" encoding="utf-8"?>
<!-- Generator: Adobe Illustrator 24.0.1, SVG Export Plug-In . SVG Version: 6.00 Build 0)  -->
<svg version="1.1" id="Layer_1" xmlns="http://www.w3.org/2000/svg" xmlns:xlink="http://www.w3.org/1999/xlink" x="0px" y="0px"
	 viewBox="0 0 24 24" style="enable-background:new 0 0 24 24;" xml:space="preserve">
<style type="text/css">
	.st0{fill:none;}
	.st1{fill:#F0F0F0;}
</style>
<path class="st0" d="M0,0h24v24H0V0z"/>
<g>
	<path class="st1" d="M7,19.5C7,20.9,5.9,22,4.5,22S2,20.9,2,19.5S3.1,17,4.5,17S7,18.1,7,19.5z M4.5,9.5C3.1,9.5,2,10.6,2,12
		s1.1,2.5,2.5,2.5S7,13.4,7,12S5.9,9.5,4.5,9.5z M4.5,2C3.1,2,2,3.1,2,4.5S3.1,7,4.5,7S7,5.9,7,4.5S5.9,2,4.5,2z M12,7
		c1.4,0,2.5-1.1,2.5-2.5S13.4,2,12,2S9.5,3.1,9.5,4.5S10.6,7,12,7z M12,9.5c-1.4,0-2.5,1.1-2.5,2.5s1.1,2.5,2.5,2.5s2.5-1.1,2.5-2.5
		S13.4,9.5,12,9.5z M12,17c-1.4,0-2.5,1.1-2.5,2.5S10.6,22,12,22s2.5-1.1,2.5-2.5S13.4,17,12,17z"/>
	<circle class="st1" cx="19.5" cy="4.5" r="2.5"/>
	<circle class="st1" cx="19.5" cy="12" r="2.5"/>
	<circle class="st1" cx="19.5" cy="19.5" r="2.5"/>
</g>
</svg>
