<?xml version="1.0" encoding="utf-8"?>
<!-- Generator: Adobe Illustrator 24.0.1, SVG Export Plug-In . SVG Version: 6.00 Build 0)  -->
<svg version="1.1" id="Layer_1" xmlns="http://www.w3.org/2000/svg" xmlns:xlink="http://www.w3.org/1999/xlink" x="0px" y="0px"
	 viewBox="0 0 24 24" style="enable-background:new 0 0 24 24;" xml:space="preserve">
<style type="text/css">
	.st0{fill:#F0F0F0;}
</style>
<title>HackerRank icon</title>
<g>
	<path class="st0" d="M12,0c1.3,0,9.8,4.9,10.4,6c0.6,1.1,0.6,10.9,0,12s-9.1,6-10.4,6s-9.8-4.9-10.4-6C1,16.9,1,7.1,1.6,6
		C2.2,4.9,10.7,0,12,0z M14.3,6.8c-0.1,0-0.3,0.1-0.3,0.3v3.9H10v-4h0.7c0.1,0,0.3-0.1,0.3-0.3c0-0.1,0-0.2-0.1-0.2L9.2,4.9
		c0-0.1-0.1-0.1-0.2-0.1c-0.1,0-0.2,0-0.2,0.1L7.1,6.4C7,6.5,7,6.6,7,6.6c0,0.1,0.1,0.3,0.3,0.3h0.7l0,10c0,0.1,0.1,0.3,0.3,0.3h1.5
		c0.1,0,0.3-0.1,0.3-0.3v-4H14v4.2h-0.7c-0.1,0-0.3,0.1-0.3,0.3c0,0.1,0,0.2,0.1,0.2l1.6,1.5c0,0.1,0.1,0.1,0.2,0.1
		c0.1,0,0.2,0,0.2-0.1l1.7-1.5c0.1,0,0.1-0.1,0.1-0.2c0-0.1-0.1-0.3-0.3-0.3h-0.7l0-10c0-0.1-0.1-0.3-0.3-0.3L14.3,6.8
		C14.3,6.8,14.3,6.8,14.3,6.8z"/>
</g>
</svg>
