<?xml version="1.0" encoding="utf-8"?>
<!-- Generator: Adobe Illustrator 24.0.1, SVG Export Plug-In . SVG Version: 6.00 Build 0)  -->
<svg version="1.1" id="Layer_1" xmlns="http://www.w3.org/2000/svg" xmlns:xlink="http://www.w3.org/1999/xlink" x="0px" y="0px"
	 viewBox="0 0 24 24" style="enable-background:new 0 0 24 24;" xml:space="preserve">
<style type="text/css">
	.st0{fill:#F0F0F0;}
</style>
<title>LeetCode icon</title>
<path class="st0" d="M16.1,17.9l-2.7,2.6c-0.5,0.5-1.1,0.7-1.8,0.7s-1.4-0.2-1.8-0.7l-4.3-4.4C5,15.7,4.7,15,4.7,14.3S5,13,5.4,12.5
	l4.3-4.4c0.5-0.5,1.1-0.6,1.8-0.6s1.4,0.2,1.8,0.7l2.7,2.6c0.5,0.5,1.4,0.5,1.9,0c0.5-0.5,0.6-1.4,0-1.9l-2.6-2.6
	C14.8,5.5,13.9,5,13,4.8l2.5-2.5c0.5-0.5,0.5-1.4,0-1.9s-1.4-0.6-1.9,0L3.4,10.5c-1,1-1.5,2.3-1.5,3.8s0.5,2.9,1.5,3.9l4.3,4.4
	c1,1,2.3,1.5,3.8,1.5s2.9-0.5,3.8-1.5l2.6-2.6c0.5-0.5,0.5-1.4,0-1.9S16.6,17.4,16.1,17.9z M20.8,13H10.7c-0.7,0-1.3,0.6-1.3,1.3
	s0.6,1.3,1.3,1.3h10.1c0.7,0,1.3-0.6,1.3-1.3S21.5,13,20.8,13z"/>
</svg>
