<?xml version="1.0" encoding="utf-8"?>
<!-- Generator: Adobe Illustrator 24.0.1, SVG Export Plug-In . SVG Version: 6.00 Build 0)  -->
<svg version="1.1" id="Layer_1" xmlns="http://www.w3.org/2000/svg" xmlns:xlink="http://www.w3.org/1999/xlink" x="0px" y="0px"
	 viewBox="0 0 33.9 33.9" style="enable-background:new 0 0 33.9 33.9;" xml:space="preserve">
<style type="text/css">
	.st0{fill:#FFFFFF;}
	.st1{fill:#005E53;}
	.st2{fill:url(#SVGID_1_);}
	.st3{fill:url(#SVGID_2_);}
	.st4{fill:#474237;}
	.st5{fill:none;}
</style>
<g>
	<polygon class="st0" points="26.1,19.2 23.9,17.9 24,10.3 16.7,14.7 8.1,9.5 8.1,6.9 16.6,1.8 16.6,4.5 10.4,8.1 16.6,11.9 24,7.6 
		26.1,8.8 	"/>
	<path class="st1" d="M13.8,16.3v-2.6l-5.3,3.2l-0.1,2.4c2.9,1.8,5.8,3.6,8.6,5.4c3-1.8,6-3.7,9-5.5c-0.7-0.4-1.5-0.9-2.2-1.3
		l-7,4.2l-6.3-3.9L13.8,16.3z"/>
	
		<linearGradient id="SVGID_1_" gradientUnits="userSpaceOnUse" x1="26.1952" y1="24.9427" x2="24.9858" y2="23.1552" gradientTransform="matrix(1 0 0 -1 0 34)">
		<stop  offset="0" style="stop-color:#D6D6D6"/>
		<stop  offset="0.246" style="stop-color:#DCDCDC"/>
		<stop  offset="0.5639" style="stop-color:#ECECEC"/>
		<stop  offset="0.8069" style="stop-color:#FDFDFD"/>
		<stop  offset="0.9954" style="stop-color:#FFFFFF"/>
	</linearGradient>
	<polygon class="st2" points="24.1,10.3 26,11.2 26,8.9 	"/>
	
		<linearGradient id="SVGID_2_" gradientUnits="userSpaceOnUse" x1="8.3258" y1="27.1" x2="10.3074" y2="27.1" gradientTransform="matrix(1 0 0 -1 0 34)">
		<stop  offset="2.429359e-02" style="stop-color:#D6D6D6"/>
		<stop  offset="0.3113" style="stop-color:#DCDCDC"/>
		<stop  offset="0.6823" style="stop-color:#ECECEC"/>
		<stop  offset="0.9954" style="stop-color:#FFFFFF"/>
	</linearGradient>
	<polygon class="st3" points="10.3,5.7 10.3,8.1 8.3,6.9 	"/>
</g>
<rect x="36.3" y="31.7" class="st4" width="33.7" height="33.7"/>
<rect x="1.7" y="26.5" class="st5" width="30.8" height="5"/>
</svg>
