<?xml version="1.0" encoding="utf-8"?>
<!-- Generator: Adobe Illustrator 24.0.1, SVG Export Plug-In . SVG Version: 6.00 Build 0)  -->
<svg version="1.1" id="Layer_1" xmlns="http://www.w3.org/2000/svg" xmlns:xlink="http://www.w3.org/1999/xlink" x="0px" y="0px"
	 viewBox="0 0 24 24" style="enable-background:new 0 0 24 24;" xml:space="preserve">
<style type="text/css">
	.st0{fill:#F0F0F0;}
</style>
<g>
	<g>
		<path class="st0" d="M22.8,11.7c-0.4,0-0.7,0.3-0.7,0.7v6c0,1.6-1.3,3-3,3H4.8c-1.6,0-3-1.3-3-3v-6.1c0-0.4-0.3-0.7-0.7-0.7
			s-0.7,0.3-0.7,0.7v6.1c0,2.4,1.9,4.3,4.3,4.3h14.5c2.4,0,4.3-1.9,4.3-4.3v-6C23.5,12,23.2,11.7,22.8,11.7z"/>
		<path class="st0" d="M11.5,17.4c0.1,0.1,0.3,0.2,0.5,0.2s0.3-0.1,0.5-0.2l4.2-4.2c0.3-0.3,0.3-0.7,0-0.9s-0.7-0.3-0.9,0l-3.1,3.1
			V2c0-0.4-0.3-0.7-0.7-0.7c-0.4,0-0.7,0.3-0.7,0.7v13.4l-3.1-3.1C8,12,7.6,12,7.3,12.3s-0.3,0.7,0,0.9L11.5,17.4z"/>
	</g>
</g>
</svg>
